<?xml version="1.0" encoding="UTF-8"?>
<!DOCTYPE svg PUBLIC "-//W3C//DTD SVG 1.1//EN" "http://www.w3.org/Graphics/SVG/1.1/DTD/svg11.dtd">
<!-- Creator: CorelDRAW 2018 (64-Bit) -->
<svg xmlns="http://www.w3.org/2000/svg" xml:space="preserve" width="1in" height="1in" version="1.1" style="shape-rendering:geometricPrecision; text-rendering:geometricPrecision; image-rendering:optimizeQuality; fill-rule:evenodd; clip-rule:evenodd"
viewBox="0 0 10000 10000"
 xmlns:xlink="http://www.w3.org/1999/xlink">
 <defs>
  <style type="text/css">
   <![CDATA[
    .str0 {stroke:#3C2946;stroke-width:166.67;stroke-linecap:round;stroke-miterlimit:1145.92}
    .fil1 {fill:none}
    .fil0 {fill:#E3FDFD}
    .fil2 {fill:#3C2946;fill-rule:nonzero}
   ]]>
  </style>
 </defs>
 <g id="Layer_x0020_1">
  <metadata id="CorelCorpID_0Corel-Layer"/>
  <rect class="fil0" width="10000" height="10000"/>
  <rect class="fil1 str0" x="2395.83" y="2395.83" width="5208.33" height="5208.33" rx="866.67" ry="866.67"/>
  <g>
   <path class="fil2" d="M6417.73 4755.82l-916.44 -305.37 610.87 -611 305.57 916.37zm-485.15 -720.72c65.09,65.08 65.1,170.61 0.02,235.7 -65.08,65.09 -170.61,65.1 -235.7,0.02l235.68 -235.72zm-583.07 11.18l118.78 -311.45 0 0 16.76 6.52 16.63 6.73 16.5 6.93 16.35 7.13 16.2 7.31 16.11 7.54 15.94 7.72 15.8 7.91 15.65 8.1 15.52 8.29 15.39 8.49 15.23 8.67 15.07 8.84 14.92 9.02 14.81 9.22 14.63 9.39 14.46 9.54 14.35 9.75 14.17 9.89 14 10.06 13.89 10.25 13.7 10.4 13.54 10.56 13.4 10.73 13.22 10.88 13.07 11.03 12.91 11.19 12.74 11.34 12.59 11.5 12.41 11.64 12.24 11.77 12.09 11.94 -235.68 235.72 -9.02 -8.91 -9.16 -8.81 -9.28 -8.7 -9.38 -8.57 -9.52 -8.47 -9.63 -8.35 -9.76 -8.24 -9.89 -8.13 -9.99 -8 -10.13 -7.89 -10.24 -7.77 -10.33 -7.63 -10.48 -7.52 -10.59 -7.41 -10.68 -7.25 -10.84 -7.15 -10.93 -7.02 -11.03 -6.87 -11.17 -6.75 -11.29 -6.62 -11.39 -6.48 -11.48 -6.33 -11.61 -6.2 -11.74 -6.07 -11.85 -5.94 -11.95 -5.79 -12.04 -5.63 -12.2 -5.51 -12.29 -5.36 -12.39 -5.2 -12.5 -5.06 -12.62 -4.91 0 0zm-1279.55 573.01l-311.45 -118.78 0 0 25.83 -62.92 28.73 -60.98 31.49 -58.93 34.15 -56.83 36.69 -54.66 39.11 -52.43 41.44 -50.14 43.63 -47.8 45.73 -45.41 47.71 -42.96 49.58 -40.47 51.34 -37.93 52.99 -35.35 54.55 -32.73 56 -30.06 57.34 -27.33 58.57 -24.57 59.7 -21.76 60.75 -18.91 61.67 -15.99 62.48 -13.04 63.21 -10.04 63.83 -6.98 64.32 -3.88 64.72 -0.72 65 2.48 65.17 5.73 65.21 9.03 65.13 12.37 64.94 15.76 64.62 19.18 64.15 22.62 -118.78 311.45 -48.29 -17.03 -48.47 -14.38 -48.6 -11.79 -48.69 -9.24 -48.7 -6.74 -48.65 -4.27 -48.53 -1.85 -48.33 0.54 -48.06 2.9 -47.71 5.22 -47.28 7.51 -46.79 9.76 -46.18 11.98 -45.5 14.17 -44.76 16.31 -43.91 18.42 -42.98 20.49 -41.96 22.52 -40.87 24.52 -39.7 26.48 -38.43 28.4 -37.09 30.28 -35.67 32.11 -34.16 33.92 -32.59 35.7 -30.93 37.43 -29.21 39.14 -27.4 40.82 -25.52 42.48 -23.57 44.12 -21.55 45.73 -19.45 47.36 0 0zm573.01 1279.55l-118.78 311.45 0 0 -62.92 -25.83 -60.98 -28.73 -58.94 -31.49 -56.83 -34.15 -54.66 -36.69 -52.43 -39.12 -50.13 -41.43 -47.8 -43.63 -45.41 -45.74 -42.96 -47.71 -40.47 -49.58 -37.93 -51.34 -35.35 -52.99 -32.73 -54.55 -30.06 -56 -27.34 -57.34 -24.57 -58.57 -21.76 -59.7 -18.91 -60.75 -15.99 -61.67 -13.04 -62.48 -10.04 -63.22 -6.98 -63.83 -3.88 -64.32 -0.72 -64.72 2.48 -65 5.73 -65.17 9.03 -65.21 12.37 -65.13 15.75 -64.95 19.18 -64.62 22.62 -64.15 311.45 118.78 -17.03 48.29 -14.38 48.47 -11.79 48.6 -9.24 48.69 -6.74 48.7 -4.27 48.65 -1.85 48.53 0.54 48.33 2.9 48.06 5.22 47.71 7.51 47.28 9.76 46.79 11.98 46.18 14.17 45.5 16.31 44.76 18.42 43.91 20.49 42.98 22.53 41.96 24.52 40.87 26.48 39.7 28.4 38.43 30.28 37.09 32.11 35.67 33.92 34.16 35.69 32.59 37.44 30.94 39.14 29.21 40.82 27.4 42.48 25.53 44.12 23.57 45.73 21.55 47.36 19.45 0 0zm1279.55 -573.02l311.45 118.78 -25.83 62.92 -28.73 60.98 -31.49 58.94 -34.15 56.82 -36.69 54.66 -39.13 52.44 -41.43 50.13 -43.63 47.8 -45.74 45.41 -47.7 42.96 -49.58 40.48 -51.35 37.94 -53 35.36 -54.55 32.72 -55.99 30.05 -57.33 27.34 -58.57 24.57 -59.7 21.76 -60.74 18.9 -61.66 16 -62.5 13.04 -63.21 10.04 -63.82 6.98 -64.33 3.88 -64.72 0.72 -65 -2.48 -65.16 -5.73 -65.21 -9.02 -65.13 -12.37 -64.94 -15.75 -64.63 -19.18 -64.15 -22.62 118.78 -311.45 48.29 17.03 48.46 14.38 48.61 11.79 48.69 9.24 48.7 6.74 48.65 4.28 48.53 1.85 48.33 -0.54 48.06 -2.9 47.71 -5.22 47.29 -7.51 46.77 -9.76 46.19 -11.98 45.51 -14.16 44.75 -16.31 43.91 -18.42 42.98 -20.49 41.97 -22.53 40.87 -24.52 39.7 -26.48 38.43 -28.39 37.09 -30.28 35.67 -32.12 34.16 -33.92 32.59 -35.7 30.94 -37.43 29.2 -39.14 27.4 -40.82 25.53 -42.48 23.57 -44.11 21.55 -45.73 19.45 -47.36zm0 0c32.8,-86 129.11,-129.13 215.11,-96.33 86,32.8 129.13,129.11 96.33,215.11l-311.45 -118.78z"/>
  </g>
 </g>
</svg>
